<svg xmlns="http://www.w3.org/2000/svg" xmlns:xlink="http://www.w3.org/1999/xlink" aria-hidden="true" role="img" class="iconify iconify--eva minimal__iconify__root css-sz8mee" id="«rbs»" width="1em" height="1em" viewBox="0 0 24 24"><path fill="#919EAB" d="M21.9 12.0005C21.9 11.8905 21.84 11.7805 21.81 11.6705C21.7643 11.4762 21.7041 11.2857 21.63 11.1005C21.58 10.9805 21.51 10.8605 21.45 10.7305C21.39 10.6005 21.3 10.4305 21.21 10.2905C21.12 10.1505 21 10.0805 21 10.0005C21 9.92047 20.8 9.75047 20.69 9.63047C20.58 9.51047 20.48 9.43047 20.37 9.33047L20 9.00047L19.64 8.76047C19.4982 8.67477 19.3513 8.59795 19.2 8.53047L18.81 8.35047C18.6468 8.28964 18.4798 8.23953 18.31 8.20047C18.1756 8.16093 18.0386 8.13086 17.9 8.11047L17.67 8.00047C17.262 6.82152 16.4966 5.79909 15.4803 5.07543C14.4641 4.35177 13.2476 3.96289 12 3.96289C10.7524 3.96289 9.5359 4.35177 8.51966 5.07543C7.50343 5.79909 6.73804 6.82152 6.33 8.00047L6.15 8.05047C6.0114 8.07086 5.8744 8.10093 5.74 8.14047C5.57024 8.17953 5.40322 8.22964 5.24 8.29047L4.85 8.47047C4.69871 8.53795 4.55176 8.61476 4.41 8.70047L4.05 9.00047L3.68 9.31047C3.57 9.41047 3.46 9.50047 3.36 9.61047C3.26 9.72047 3.15 9.86047 3.05 9.98047C2.95 10.1005 2.87 10.2105 2.79 10.3405C2.71 10.4705 2.63 10.6305 2.55 10.7805C2.47 10.9305 2.42 11.0305 2.37 11.1505C2.29587 11.3357 2.2357 11.5262 2.19 11.7205C2.19 11.8305 2.12 11.9405 2.1 12.0505C2.03642 12.3632 2.00294 12.6813 2 13.0005C2.00469 13.3058 2.03479 13.6102 2.09 13.9105C2.09 14.0105 2.14 14.1005 2.16 14.2005C2.21017 14.3967 2.27025 14.5903 2.34 14.7805L2.46 15.0705C2.54803 15.2633 2.64823 15.4503 2.76 15.6305L2.9 15.8505C2.9154 15.8779 2.93208 15.9046 2.95 15.9305L3 16.0005C3.46574 16.6214 4.06966 17.1255 4.76393 17.4726C5.45821 17.8197 6.22377 18.0005 7 18.0005H10V16.6305C9.69616 16.8067 9.35126 16.8998 9 16.9005C8.45825 16.8954 7.94054 16.6761 7.56 16.2905C7.37729 16.1015 7.23364 15.8783 7.13726 15.6337C7.04087 15.3891 6.99365 15.1279 6.9983 14.8651C7.00294 14.6023 7.05936 14.3429 7.16432 14.1019C7.26928 13.8609 7.42073 13.6429 7.61 13.4605L10.61 10.5605C10.9832 10.2007 11.4816 9.99994 12 10.0005C12.5296 10.0027 13.0366 10.2149 13.41 10.5905L16.41 13.5905C16.7825 13.9652 16.9916 14.4721 16.9916 15.0005C16.9916 15.5288 16.7825 16.0357 16.41 16.4105C16.0366 16.7861 15.5296 16.9982 15 17.0005C14.6481 17.0048 14.3019 16.9113 14 16.7305V18.0005H17C17.7762 18.0005 18.5418 17.8197 19.2361 17.4726C19.9303 17.1255 20.5343 16.6214 21 16.0005L21.05 15.9505C21.0679 15.9246 21.0846 15.8979 21.1 15.8705L21.24 15.6505C21.3518 15.4704 21.452 15.2833 21.54 15.0905L21.66 14.8005C21.7298 14.6103 21.7898 14.4167 21.84 14.2205C21.84 14.1205 21.89 14.0305 21.91 13.9305C21.9663 13.6236 21.9964 13.3125 22 13.0005C22.0003 12.6646 21.9668 12.3296 21.9 12.0005Z"></path> <path fill="#919EAB" d="M12.71 11.2898C12.5231 11.1065 12.2718 11.0039 12.01 11.0039C11.7483 11.0039 11.4969 11.1065 11.31 11.2898L8.31002 14.1898C8.20391 14.2773 8.117 14.3858 8.05474 14.5085C7.99248 14.6312 7.9562 14.7654 7.94818 14.9027C7.94015 15.0401 7.96054 15.1776 8.00809 15.3067C8.05563 15.4358 8.1293 15.5537 8.22448 15.653C8.31967 15.7523 8.43433 15.8309 8.56128 15.8839C8.68824 15.9369 8.82476 15.9631 8.96231 15.961C9.09987 15.9588 9.23549 15.9282 9.3607 15.8712C9.48592 15.8143 9.59802 15.7321 9.69002 15.6298L11 14.3598V19.9998C11 20.265 11.1054 20.5193 11.2929 20.7069C11.4804 20.8944 11.7348 20.9998 12 20.9998C12.2652 20.9998 12.5196 20.8944 12.7071 20.7069C12.8947 20.5193 13 20.265 13 19.9998V14.4098L14.29 15.7098C14.383 15.8035 14.4936 15.8779 14.6154 15.9287C14.7373 15.9794 14.868 16.0056 15 16.0056C15.132 16.0056 15.2627 15.9794 15.3846 15.9287C15.5065 15.8779 15.6171 15.8035 15.71 15.7098C15.8037 15.6168 15.8781 15.5062 15.9289 15.3843C15.9797 15.2625 16.0058 15.1318 16.0058 14.9998C16.0058 14.8678 15.9797 14.737 15.9289 14.6152C15.8781 14.4933 15.8037 14.3827 15.71 14.2898L12.71 11.2898Z"></path></svg>