<svg xmlns="http://www.w3.org/2000/svg" xmlns:xlink="http://www.w3.org/1999/xlink" aria-hidden="true" role="img" class="iconify iconify--custom minimal__iconify__root css-eadae1" id="«r97»" width="1em" height="1em" viewBox="0 0 24 24"><path fill="#637381" d="M14.9844 3H17.9844C19.6412 3 20.9844 4.34315 20.9844 6V18C20.9844 19.6569 19.6412 21 17.9844 21H14.9844V3Z"></path> <path fill="#637381" fill-rule="evenodd" clip-rule="evenodd" d="M6.01562 3C4.35938 3 3.01562 4.34277 3.01562 6V18C3.01562 19.6572 4.35938 21 6.01562 21H13.0156V3H6.01562ZM8.10156 9.22559C7.78125 8.94238 7.27344 9.17188 7.27344 9.60156V14.3984C7.27344 14.8281 7.78125 15.0576 8.10156 14.7744L10.8438 12.376C11.0039 12.2354 11.0508 12.0176 10.9844 11.8311C10.957 11.7539 10.9102 11.6826 10.8438 11.624L8.10156 9.22559Z"></path></svg>