<?xml version="1.0" standalone="no"?>
<!DOCTYPE svg PUBLIC "-//W3C//DTD SVG 20010904//EN"
 "http://www.w3.org/TR/2001/REC-SVG-20010904/DTD/svg10.dtd">
<svg version="1.0" xmlns="http://www.w3.org/2000/svg"
 width="165.000000pt" height="80.000000pt" viewBox="0 0 165.000000 80.000000"
 preserveAspectRatio="xMidYMid meet">

<g transform="translate(0.000000,80.000000) scale(0.100000,-0.100000)"
fill="#000000" stroke="none">
<path d="M354 705 c4 -16 16 -42 27 -57 23 -32 11 -38 -16 -8 -10 11 -20 18
-22 16 -10 -9 27 -74 56 -98 17 -15 31 -31 31 -37 0 -9 31 -31 44 -31 3 0 2
10 -3 23 -4 12 -6 38 -4 57 4 30 0 38 -27 58 -17 13 -45 42 -62 65 -29 40 -30
41 -24 12z"/>
<path d="M600 555 c0 -25 0 -25 26 -9 19 13 22 19 12 25 -24 16 -38 9 -38 -16z"/>
<path d="M510 542 c0 -7 -5 -10 -11 -6 -8 5 -9 -6 -4 -37 9 -55 10 -55 39 -40
29 16 48 55 38 78 -8 22 -62 26 -62 5z"/>
<path d="M556 439 c-10 -10 -37 -24 -59 -32 -23 -7 -42 -18 -44 -24 -4 -11
106 22 120 37 5 4 7 14 5 22 -2 12 -6 12 -22 -3z"/>
<path d="M315 430 c-18 -8 -18 -9 5 -9 14 0 32 4 40 9 12 8 12 10 -5 9 -11 0
-29 -4 -40 -9z"/>
<path d="M391 417 c-13 -6 -33 -24 -44 -38 -18 -25 -18 -30 -4 -80 8 -30 15
-73 14 -96 -2 -49 6 -61 29 -42 31 25 35 57 17 125 -16 59 -16 68 -2 92 8 15
26 32 39 39 l25 13 -25 0 c-14 0 -36 -6 -49 -13z"/>
<path d="M34 383 c69 -179 132 -333 138 -333 4 0 19 34 35 75 15 41 32 73 37
72 5 -2 21 -34 36 -72 15 -39 31 -69 36 -68 5 1 14 19 22 40 13 37 12 42 -40
171 l-54 132 -33 -80 c-19 -44 -37 -80 -41 -80 -3 0 -20 35 -36 78 -29 76 -29
77 -68 80 -34 3 -38 1 -32 -15z"/>
<path d="M854 358 c-12 -5 -27 -21 -33 -35 -10 -21 -8 -33 9 -67 28 -59 25
-79 -17 -117 l-38 -32 35 6 c46 9 84 38 88 67 2 13 -4 48 -14 78 -18 50 -18
55 -2 83 18 31 10 36 -28 17z"/>
<path d="M950 246 c0 -86 3 -106 14 -106 11 0 16 14 18 48 3 44 5 47 33 50 40
5 55 19 55 52 0 36 -20 51 -75 58 l-45 5 0 -107z m85 44 c0 -20 -6 -26 -27
-28 -25 -3 -28 0 -28 28 0 28 3 31 28 28 21 -2 27 -8 27 -28z"/>
<path d="M1110 348 c-1 -2 -2 -49 -3 -106 l-2 -102 58 0 c66 0 78 17 15 22
-42 3 -43 4 -46 41 l-3 37 45 0 c58 0 60 18 4 22 -39 3 -43 6 -46 31 -3 26 -2
27 43 27 66 0 55 24 -13 28 -29 2 -52 2 -52 0z"/>
<path d="M1260 246 c0 -64 4 -106 10 -106 6 0 10 20 10 45 0 25 4 45 8 45 5 0
23 -20 41 -45 44 -62 73 -61 30 1 l-31 46 21 14 c25 18 28 65 6 84 -8 6 -32
14 -55 17 l-40 6 0 -107z m78 43 c3 -21 -2 -27 -22 -31 -32 -6 -36 -2 -36 34
0 26 3 29 28 26 21 -2 28 -9 30 -29z"/>
<path d="M1445 317 c-28 -28 -35 -43 -35 -75 0 -115 166 -148 210 -42 29 69
-16 139 -94 147 -42 5 -48 3 -81 -30z m133 -23 c26 -29 28 -54 7 -93 -24 -48
-81 -56 -120 -16 -33 32 -34 84 -2 112 42 39 77 38 115 -3z"/>
<path d="M470 240 l0 -100 55 0 c30 0 55 5 55 10 0 6 -18 10 -40 10 l-40 0 0
40 0 40 40 0 c22 0 40 5 40 10 0 6 -18 10 -40 10 -38 0 -40 2 -40 30 0 28 2
30 40 30 22 0 40 5 40 10 0 6 -25 10 -55 10 l-55 0 0 -100z"/>
<path d="M620 240 l0 -100 49 0 c55 0 81 17 81 55 0 13 -7 31 -16 40 -13 12
-14 19 -5 28 15 15 14 50 -1 65 -7 7 -34 12 -60 12 l-48 0 0 -100z m89 66 c15
-18 5 -43 -22 -50 -35 -9 -37 -8 -37 29 0 30 3 35 24 35 13 0 29 -6 35 -14z
m-8 -76 c23 -13 25 -55 3 -64 -41 -16 -54 -7 -54 34 0 43 13 50 51 30z"/>
<path d="M1080 93 c0 -6 7 -16 15 -23 21 -17 19 -34 -2 -25 -15 5 -16 4 -5 -6
9 -10 15 -10 23 -2 9 9 6 19 -10 39 -11 15 -21 22 -21 17z"/>
<path d="M1136 84 c-9 -24 -2 -26 12 -4 7 11 8 20 3 20 -5 0 -12 -7 -15 -16z"/>
<path d="M1222 70 c0 -19 2 -27 5 -17 2 9 2 25 0 35 -3 9 -5 1 -5 -18z"/>
<path d="M1261 79 c-1 -35 23 -56 44 -39 8 7 14 24 14 39 -1 25 -2 25 -8 -4
-3 -17 -13 -30 -21 -30 -8 0 -18 13 -21 30 -6 29 -7 29 -8 4z"/>
<path d="M1382 70 c0 -19 2 -27 5 -17 2 9 2 25 0 35 -3 9 -5 1 -5 -18z"/>
<path d="M1413 84 c-7 -19 7 -46 28 -52 8 -2 5 2 -5 10 -13 10 -17 22 -13 37
6 25 -1 28 -10 5z"/>
<path d="M1459 87 c7 -9 10 -25 7 -34 -6 -14 -4 -15 4 -7 15 15 9 46 -10 52
-13 5 -13 3 -1 -11z"/>
<path d="M1514 73 c16 -18 32 -31 34 -28 3 3 3 6 1 8 -2 1 -17 13 -34 27 l-30
25 29 -32z"/>
<path d="M1570 93 c0 -6 7 -16 15 -23 21 -17 19 -34 -2 -25 -15 5 -16 4 -5 -6
9 -10 15 -10 23 -2 9 9 6 19 -10 39 -11 15 -21 22 -21 17z"/>
<path d="M1176 45 c-11 -8 -15 -15 -9 -15 6 0 16 7 23 15 16 19 11 19 -14 0z"/>
</g>
</svg>
